# xmcd
#
# Track frame offsets: 
#        150
#        10411
#        33522
#        49140
#        68132
#        82330
#        89364
#        100376
#        118509
#        136715
#        153624
#        187357
#
# Disc length: 2678 seconds
#
# Revision: 4
# Processed by: cddbd v1.5.2PL0 Copyright (c) Steve Scherf et al.
# Submitted via: ExactAudioCopyFreeDBPlugin 1.0
#
DISCID=a90a740c
DTITLE=Conni - Conni lernt backen and hilft Mama
DYEAR=2006
DGENRE=Hörspiel
TTITLE0=Titellied "Conni mit der Schleife im Haar"
TTITLE1=Heute wird aber gebacken!
TTITLE2=Man nehme...
TTITLE3=Teig kneten und Plätzchen stechen
TTITLE4=Die ersten Plätzchen
TTITLE5=Connis Lieblingsplätzchenrezept
TTITLE6=Im Supermarkt
TTITLE7=Auf dem Spielplatz
TTITLE8=Rollentausch Mama-Kind
TTITLE9=Mama muss zum Arzt
TTITLE10=Der nächste Morgen
TTITLE11=Mama geht's besser
EXTD=YEAR: 2006
EXTT0=
EXTT1=
EXTT2=
EXTT3=
EXTT4=
EXTT5=
EXTT6=
EXTT7=
EXTT8=
EXTT9=
EXTT10=
EXTT11=
PLAYORDER=
